<svg width="124" height="124" viewBox="0 0 124 124" fill="none" xmlns="http://www.w3.org/2000/svg">
<mask id="mask0_27_682" style="mask-type:alpha" maskUnits="userSpaceOnUse" x="0" y="0" width="124" height="124">
<rect width="124" height="124" fill="#D9D9D9"/>
</mask>
<g mask="url(#mask0_27_682)">
<path d="M98.1669 46.5L91.7085 32.2917L77.5002 25.8333L91.7085 19.375L98.1669 5.16668L104.625 19.375L118.834 25.8333L104.625 32.2917L98.1669 46.5ZM98.1669 118.833L91.7085 104.625L77.5002 98.1667L91.7085 91.7083L98.1669 77.5L104.625 91.7083L118.834 98.1667L104.625 104.625L98.1669 118.833ZM46.5002 103.333L33.5835 74.9167L5.16687 62L33.5835 49.0833L46.5002 20.6667L59.4169 49.0833L87.8335 62L59.4169 74.9167L46.5002 103.333ZM46.5002 78.275L51.6669 67.1667L62.7752 62L51.6669 56.8333L46.5002 45.725L41.3335 56.8333L30.2252 62L41.3335 67.1667L46.5002 78.275Z" fill="#A6A6B8"/>
</g>
</svg>
